<svg id="Capa_5" data-name="Capa 5" xmlns="http://www.w3.org/2000/svg" viewBox="0 0 227.29 188.16"><defs><style>.cls-1{fill:#fff;}</style></defs><title>Mesa de trabajo 1</title><path class="cls-1" d="M93.8,188.16c-2.17-1.14-2.7-3-2.7-5.34q.08-37,0-74v-2.53H88.93c-7.1,0-14.21,0-21.31,0-3.48,0-4.91-1.39-4.92-4.88q0-14.42,0-28.84c0-3.49,1.48-4.91,4.92-4.92H91.14c0-.82,0-1.47,0-2.13,0-7.53-.17-15.07.15-22.59.54-12.57,4.65-23.7,14.25-32.3A38.84,38.84,0,0,1,129.43.47c10.37-.63,20.8-.4,31.2-.47,2.17,0,3.46,1.29,3.83,3.46a13.5,13.5,0,0,1,.15,2q0,12.77,0,25.53c0,4.1-1.3,5.38-5.33,5.42-5.94.06-11.88,0-17.81.26-6.82.24-10.12,3.19-10.45,10s-.07,13.81-.07,21h27.38c3.69,0,5.06,1.29,5.07,4.9q0,14.52,0,29c0,3.4-1.38,4.71-4.84,4.71q-12.67,0-25.36,0h-2.27v2.24q0,37,0,74c0,2.38-.51,4.31-2.59,5.63Z"/></svg>